<?xml version="1.0" encoding="utf-8"?>
<!-- Generator: Adobe Illustrator 13.0.0, SVG Export Plug-In . SVG Version: 6.00 Build 14948)  -->
<!DOCTYPE svg PUBLIC "-//W3C//DTD SVG 1.1//EN" "http://www.w3.org/Graphics/SVG/1.1/DTD/svg11.dtd">
<svg version="1.1" id="Lager_1" xmlns="http://www.w3.org/2000/svg" xmlns:xlink="http://www.w3.org/1999/xlink" x="0px" y="0px"
	 width="248.031px" height="301.481px" viewBox="0 0 248.031 301.481" enable-background="new 0 0 248.031 301.481"
	 xml:space="preserve">
<g>
	<g>
		<path fill="#00873D" d="M2.453,162.409c0,0-0.002,0.016-0.002,0.019c-0.006,0-0.033-0.008-0.042-0.008
			C2.411,162.417,2.453,162.409,2.453,162.409"/>
		<path fill="#00873D" d="M81.591,142.403c-0.435,0.637-1.299,1.596-1.738,2.226c-7.111,9.456-15.714,19.846-25.506,25.083
			c-3.728,2.433-8.061,3.951-13.703,4.809c-10.682,0.488-21.155-0.516-24.82-11.166c-0.498-1.984-1.053-4.854-1.053-7.754
			c0-2.797,0.516-5.625,2.1-7.72l0.062-0.084l0.042-0.097c1.348-3.148,3.215-6.051,5.194-8.834c0.262-0.373,0.529-0.745,0.798-1.108
			c0.245-0.341,0.606-0.658,0.612-1.1c0.003-0.233-0.01-0.243,0.146-0.448c0.253-0.333,0.465-0.826,0.502-1.246
			c0.035-0.421,0.184-0.681,0.423-1.042c0.278-0.422,0.583-0.905,0.717-1.51c0.203-0.543,0.3-1.05,0.3-1.507
			c0-1.072-0.443-1.927-0.822-2.659l-0.54-1.176l-0.148-0.194c-1.153-1.121-1.804-2.792-2.434-4.404c0,0-0.256-0.653-0.31-0.789
			c-0.037-0.202-0.37-2.013-0.37-2.013c-0.29-1.445-0.568-2.835-0.568-4.243c0-0.616,0.055-1.231,0.183-1.86
			c1.55-8.082,3.923-16.124,10.741-20.278c6.193-4.683,14.689-4.337,22.176-3.651c8.729,1.613,17.486,6.906,26.694,16.168
			c1.905,1.914,3.695,3.797,5.945,5.331c2.179,1.481,4.574,2.643,7.105,3.384c1.255,0.367,2.539,0.631,3.837,0.794
			c1.138,0.146,2.454,0.398,3.516-0.169c0.203-0.107,0.339-0.329,0.547-0.435c0.198-0.101,0.449-0.101,0.631-0.197
			c0.492-0.259,0.294-0.553-0.208-0.718c-0.377-0.125-0.618-0.208-0.998-0.313c-0.277-0.075-0.567-0.228-0.835-0.34
			c-0.659-0.275-1.271-0.653-1.843-1.079c-1.159-0.866-2.153-1.927-3.148-2.97c-0.846-0.886-1.72-1.808-2.639-2.567l-0.095-0.078
			l-0.112-0.047c-0.439-0.192-0.854-0.581-1.29-0.993c-0.461-0.434-0.952-0.858-1.538-1.154c-0.05-0.039-4.345-3.528-4.345-3.528
			c-0.675-0.55-1.373-1.071-2.052-1.615c-0.322-0.257-0.608-0.516-0.88-0.809c-0.22-0.239-0.574-0.318-0.838-0.5
			c-0.221-0.154-0.383-0.276-0.563-0.475c-0.117-0.131-0.226-0.214-0.371-0.302c-0.121-0.073-0.332-0.126-0.424-0.2
			c-0.063-0.046-0.058-0.137-0.117-0.177c-0.066-0.046-0.154-0.023-0.208-0.057c-0.252-0.16-0.453-0.406-0.702-0.58
			c-0.312-0.22-0.622-0.438-0.933-0.656c-0.623-0.437-1.247-0.872-1.871-1.305c-1.308-0.903-2.621-1.798-3.946-2.677
			c-3.112-2.065-6.28-4.053-9.546-5.867c-0.792-0.341-1.465-0.761-2.182-1.208c-0.949-0.594-1.946-1.178-3.064-1.525
			c-0.512-0.622-1.143-0.718-1.546-0.757c-0.342-0.033-0.363-0.049-0.433-0.143l-0.327-0.432l-0.532,0.109
			c-0.481,0.097-0.822-0.07-1.432-0.399c-0.35-0.188-0.757-0.385-1.221-0.523c-0.486-0.453-1.033-0.474-1.405-0.378
			c-2.344-0.925-4.809-1.575-7.2-2.189l-2.989-0.787l-0.076,0.01l-0.921,0.108c-0.407,0.078-0.518,0.087-0.675,0.003l-0.191-0.105
			H37.33c-3.877-0.001-8.273-0.007-11.868,1.829l-1.494,0.762c0,0,0.066,0.036,0.073,0.038c-1.018,0.458-1.875,1.005-2.629,1.702
			c-0.92,0.326-1.683,0.944-2.338,1.537l-0.928,0.789l0.255-0.129c-0.557,0.174-0.929,0.637-1.228,1.008l-0.296,0.339l-0.197,0.112
			c0,0-0.18,0.338-0.208,0.391c-0.005,0.003-0.456,0.236-0.456,0.236L15.809,86.1c-5.997,7.799-9.139,17.015-9.139,26.755
			c0,0.587,0.011,1.179,0.034,1.772c0.383,4.231,1.832,8.159,4.566,12.407c0.697,0.976,1.419,1.941,2.241,2.817
			c0.388,0.411,0.799,0.806,1.242,1.16c0.208,0.166,0.424,0.337,0.654,0.473c0.227,0.135,0.48,0.134,0.716,0.248
			c0.13,0.287-0.402,0.503-0.509,0.716c-0.167,0.337-0.28,0.853-0.627,1.099c-2.477,1.768-4.844,4.248-6.512,6.844l-0.062,0.098
			l-0.034,0.11c-0.492,1.566-1.389,2.955-2.335,4.425c-1.082,1.676-2.202,3.415-2.706,5.474c0.02-0.072-0.771,1.896-0.771,1.896
			c-0.533,1.218-1.065,2.49-1.276,3.936c-0.009,0.066-0.127,0.178-0.164,0.242c-0.057,0.095-0.109,0.195-0.153,0.299
			c-0.075,0.174-0.091,0.408-0.185,0.567c-0.048,0.085-0.053,0.032-0.113,0.075c-0.111,0.078-0.11,0.211-0.124,0.361
			c-0.034,0.376-0.022,0.758-0.022,1.137c0,0.469,0.013,0.935,0.013,1.406c0,0.197-0.052,0.537,0.105,0.668
			c0.121,0.105,0.126,0.161,0.084,0.291c-0.058,0.173-0.1,0.354-0.1,0.535c0,0.215,0,0.447,0.074,0.65
			c0.13,0.345,0.446,0.14,0.723,0.076c0.008,0.015,0.021,0.043,0.021,0.043c-0.13,0.469-0.258,0.602-0.262,0.604
			c-0.104,0.078-0.224,0.107-0.301,0.225c-0.073,0.115-0.091,0.264-0.114,0.394c-0.047,0.254-0.097,0.491-0.097,0.753
			c0,0.207,0.013,0.406,0.034,0.607c0.018,0.18-0.001,0.365,0.012,0.545c0.014,0.156,0.083,0.282,0.097,0.438
			c0.032,0.377,0.054,0.753,0.082,1.129c0.021,0.293,0.041,0.588,0.063,0.885c0.003,0.048,0.06,0.314,0.025,0.355
			c0.141-0.161,0.282-0.32,0.423-0.48c0.074-0.082,0.16-0.271,0.286-0.277c0.292-0.006,0.312,0.635,0.356,0.828l0.022-0.019
			c-0.038,0.241-0.08,0.481-0.08,0.718c0,0.488,0.08,0.932,0.217,1.166l0.447,0.755l0.749-0.46c0.073-0.045,0.085-0.113,0.15-0.156
			c0,0,0.156,0.004,0.311,0.008c0.008,0.205,0.02,0.494,0.02,0.494l0.087,1.391l0.053,0.066l0.395,1.252
			c0.137,0.529,0.301,1.055,0.548,1.533c-0.006,0.071-0.015,0.146-0.015,0.217c0,1.102,0.524,2.113,1.484,2.83
			c0,0,0.416,0.309,0.815,0.609c0.157,0.324,0.58,1.21,0.58,1.21s0.183-0.399,0.369-0.794c0.06,0.133,0.117,0.266,0.174,0.406
			l0.526,1.152l0.358,0.037c0.067,0.017,0.108,0.063,0.273,0.359l0.875,1.117l0.132-0.066c0.337,0.091,0.796,0.493,1.238,0.877
			c0.646,0.563,1.376,1.201,2.283,1.441c4.323,1.592,9.101,3.133,14.21,3.475c10.271,0.83,20.593-2.517,30.666-9.951
			c8.61-6.354,16.866-15.551,24.534-27.331c0.005-0.01,1.99-3.038,3.256-4.968l1.081-1.311c0.208-0.243,0.529-0.41,0.679-0.697
			c0.187-0.356,0.393-0.678,0.638-1.011c0.514-0.702,1.053-1.387,1.561-2.095c0,0,3.238-4.487,3.276-4.538
			c0.487-0.438,0.852-0.974,1.184-1.515c0.314-0.512,0.61-0.995,0.988-1.295l0.095-0.076l0.071-0.1
			c0.688-0.972,1.294-2.089,1.88-3.167c0.688-1.268,1.374-2.551,2.267-3.686c0.438-0.561,0.931-1.088,1.498-1.523
			c0.228-0.178,0.469-0.402,0.716-0.545c0.341-0.2,0.55-0.343,0.882-0.562c0.443-0.288,0.557-0.625,0.016-0.748
			c-0.203-0.045-0.444,0.021-0.662-0.026c-0.228-0.048-0.417-0.226-0.642-0.276c-1.174-0.273-2.375,0.313-3.44,0.752
			c-1.208,0.495-2.379,1.086-3.494,1.767c-2.252,1.377-4.263,3.119-5.979,5.119c-1.774,2.067-3.013,4.35-4.353,6.694
			C84.015,138.925,82.597,140.872,81.591,142.403"/>
		<path fill="#00873D" d="M110.966,12.262c-0.054-0.001-0.107-0.003-0.164,0.014c-0.372,0.114-0.535,0.473-0.793,0.722
			c-0.313,0.299-0.672,0.545-0.977,0.858c-0.581,0.599-1.053,1.275-1.567,1.929c0,0-0.916,1.166-1.068,1.358
			c-1.673,1.032-3.87,1.016-5.063,0.382l-0.077-0.039l-0.083-0.026c-0.189-0.056-0.371-0.253-0.583-0.482
			c-0.286-0.31-0.576-0.48-0.906-0.697c-0.247-0.159-0.351-0.284-0.378-0.592c-0.012-0.146,0.261-1.568,0.359-1.545
			c-0.208-0.048-0.273-0.127-0.508-0.611l-0.496-0.922l-0.343-0.039c-0.655-0.162-1.396-0.554-2.113-0.933
			c0,0-0.413-0.211-0.681-0.352c-0.452-0.858-1.45-0.947-1.99-0.966c-0.295-0.01-0.596-0.064-0.89-0.098
			c-0.287-0.031-1.013,0.012-1.214-0.197c-0.168-0.173,0.008-0.253-0.085-0.418c-0.229-0.392-0.675,0.072-0.957,0.147
			c-0.317,0.086-0.685,0.061-1.011,0.114c-0.538,0.088-1.331,0.271-1.343,0.953c-0.878,0.347-1.115-0.506-1.924-0.741
			c-0.396-0.113-0.801-0.199-1.214-0.221c-0.361-0.02-0.7,0.105-1.05,0.078c-0.383-0.031-0.702-0.264-1.073-0.334
			c-0.417-0.076-0.752,0.149-1.135,0.273c-0.971,0.317-1.866,0.807-2.756,1.3c-1.062,0.587-2.063,1.143-3.088,1.292l-0.162,0.024
			l-0.143,0.082c-3.095,1.792-5.861,3.481-8.4,6.042c-6.246,6.175-10.021,13.693-11.536,22.977c-0.45,2.164-0.677,4.301-0.677,6.415
			c0,6.433,2.777,16.509,4.821,19.648c3.711,5.702,13.394,17.466,23.065,24.009c2.432,1.698,4.769,3.759,7.241,5.941
			c3.228,2.85,6.568,5.797,10.28,7.937l0.13,0.074l0.244,0.044c0.452,0.08,1.82,0.324,2.401-0.939
			c0.954-1.883-0.804-3.322-1.981-4.471c-1.558-1.519-3.015-3.148-4.447-4.784c-0.776-0.887-1.548-1.775-2.322-2.666
			c-1.9-2.193-3.865-4.459-5.967-6.619c-0.553-0.718-1.198-1.251-1.792-1.943c-0.316-0.369-0.774-0.611-1.152-0.909
			c-0.753-0.586-1.592-1.146-2.098-1.83c-0.627-0.837-1.286-1.017-1.997-1.717c-0.947-0.931-1.401-2.218-2.319-3.182
			c-1.068-1.12-2.082-2.29-3.055-3.491c-1.736-2.144-3.354-4.389-4.828-6.721c-2.172-3.44-2.77-12.247-2.77-16.776
			c0-3.883,0.755-7.728,2.962-11.307c4.104-6.543,10.704-10.302,19.607-11.172c0.662,0.014,1.28-0.205,1.829-0.396
			c0.876-0.308,1.191-0.366,1.448-0.138l0.271,0.241l0.363-0.026c1.251-0.09,2.357,0.31,3.527,0.73
			c0.949,0.343,1.933,0.683,3.042,0.799c4.198,1.553,8.237-1.684,11.487-4.3c0,0,0.838-0.669,0.96-0.766
			c0.265-0.125,2.205-1.021,2.205-1.021c1.132-0.569,2.202-1.107,3.352-1.395l0.093-0.023l0.083-0.042
			c5.732-2.86,14.714-5.326,21.154-2.855l0.044,0.02l0.048,0.012c6.537,1.684,10.854,7.076,13.578,16.967
			c0.404,1.614,0.508,3.228,0.582,4.826c0.472,10.333-12.549,27.334-15.237,30.115c0,0-3.755,3.969-3.835,4.056
			c-3.736,3.239-7.42,6.541-10.882,10.073c-3.423,3.498-6.648,7.23-9.314,11.344c-1.262,1.948-2.395,3.981-3.333,6.104
			c-0.456,1.028-0.866,2.079-1.219,3.145c-0.177,0.532-0.294,1.097-0.489,1.62c-0.15,0.399-0.481,0.834-0.386,1.288
			c0.039,0.19,0.171,0.23,0.276,0.364c0.154,0.19,0.148,0.223,0.187,0.488c0.192,1.297,1.402-0.394,1.676-0.786
			c0.912-1.297,1.899-2.411,3.049-3.525c1.037-1.004,2.074-2.025,2.915-3.208c0.334-0.468,0.72-0.938,0.942-1.476
			c0.212-0.516,0.34-0.938,0.664-1.423c0.991-1.492,2.34-2.597,3.638-3.831c1.693-1.607,3.438-3.276,4.827-5.124
			c6.584-5.708,12.463-12.51,18.145-19.091l5.503-6.313l1.757-2.479c1.498-2.054,13.172-16.255,14.037-27.239
			c0.111-1.445,0.512-2.747,0.512-4.045c0-3.162-0.892-6.058-1.765-8.887l-0.96-3.301l-0.085-0.139
			c-0.678-0.992-1.133-2.093-1.62-3.256c-0.602-1.454-1.244-2.945-2.332-4.227c-0.667-1.771-2.255-2.895-3.68-3.878
			c-0.898-0.619-1.746-1.204-2.29-1.879l-0.101-0.122l-0.131-0.081c-4.099-2.421-8.836-3.706-14.909-4.042
			c-1.431-0.039-2.87,0.005-4.3,0.129c-4.736,0.411-9.385,1.716-13.654,3.803c-2.149,1.052-4.203,2.3-6.128,3.721
			c-0.973,0.718-1.911,1.48-2.814,2.283c-0.456,0.405-0.9,0.818-1.336,1.245c-0.202,0.196-0.426,0.368-0.628,0.555
			c-0.154,0.144-0.281,0.387-0.469,0.484C111.121,12.273,111.043,12.265,110.966,12.262"/>
		<path fill="#00873D" d="M106.357,37.515c-0.026,0.388-0.033,0.779-0.038,1.17c0,0.002-0.004,0.23-0.004,0.23l0.073-0.104
			l-0.139,0.2l-0.174,0.426c-0.01,2.959-0.5,6.201-1.029,9.138l-0.015,0.085l0.004,0.087c0.015,0.32,0.021,0.643,0.021,0.964
			c0,2.055-0.292,4.1-0.577,6.086c-0.292,2.03-0.588,4.114-0.588,6.249c0,0.58,0.024,1.167,0.075,1.754
			c-0.226,1.675-0.33,3.325-0.33,4.953c0,4.422,0.682,6.307,1.369,10.458l0.783,4.165c-0.004-0.033,0.117,1.808,0.117,1.808
			c0.047,1.074,0.169,2.107,0.34,3.166c0.094,0.583,0.056,1.574,0.649,1.95c0.371,0.235,0.432-0.122,0.557-0.376
			c0.296-0.598,1.09-0.84,1.45-1.422c0.353-0.572,0.439-1.236,0.51-1.88c0.055-0.498,0.105-0.968,0.303-1.291l0.03-0.048
			l0.021-0.052c0.693-1.595,0.91-3.32,1.118-4.99c0.176-1.403,0.339-2.728,0.765-3.961c0.986-2.533,1.288-5.263,1.288-7.982
			c0-2.277-0.212-4.546-0.411-6.687c-0.045-0.474-0.096-0.932-0.299-1.376c-0.364-0.797-0.505-1.642-0.671-2.489
			c-0.322-1.416-0.627-2.764-0.627-4.268c0-0.265,0.008-0.537,0.029-0.812l0.029-0.401l-0.33-0.272
			c-0.064-0.409-0.1-0.836-0.1-1.302c0-0.227,0.002-0.461,0.006-0.698c0.003-0.236,0.008-0.476,0.008-0.714
			c0-0.987-0.066-1.974-0.479-2.842l-0.071-0.151l-0.129-0.113c-0.174-0.153-0.244-0.377-0.244-0.663
			c0-0.396,0.134-0.912,0.31-1.524c0.085-0.297,0.21-0.623,0.2-0.934c-0.667-0.023-0.178-0.977-0.278-1.344
			c-0.081-0.297-0.286-0.438-0.505-0.668c-0.359-0.374-0.144-0.684,0.042-1.076c-0.851-1.014-1.279-2.147-1.514-3.389
			c-0.205-1.079-0.011-2.503-0.878-3.353c-0.587-0.576-0.292,0.474-0.23,0.753c0.107,0.484-0.077,1.123-0.154,1.606
			C106.536,36.229,106.396,36.854,106.357,37.515"/>
		<path fill="#00873D" d="M187.468,49.024c-10.998,2.769-20.987,7.375-27.29,14.789c-5.603,6.586-11.149,13.216-16.703,19.844
			c-2.813,3.361-5.696,6.581-8.485,9.931c-1.533,1.843-3.098,3.662-4.648,5.492c-2.893,3.409-5.97,6.634-9.096,9.828
			c-0.439,0.453-2.866,1.772-2.493,2.513c0.536,1.054,3.816-1.006,4.358-1.269c4.932-2.403,9.805-4.839,14.094-8.288
			c1.721-1.385,3.512-2.69,5.128-4.201c1.664-1.555,3.031-3.395,4.532-5.101c3.516-3.998,7.164-7.885,10.826-11.751
			c0.002-0.002,4.069-4.121,4.069-4.121s2.288-2.276,2.398-2.386c2.944-2.171,6.01-4.22,9.37-6.26
			c6.995-3.329,13.112-5.075,19.175-5.456c1.703,0.207,3.484,0.233,5.207,0.256c2.067,0.025,4.21,0.052,6.179,0.402l0.11,0.02
			l0.111-0.009c3.353-0.285,6.123,1.081,9.057,2.528l1.899,0.916c6.708,3.789,10.525,10.508,10.525,17.991
			c0,1.886-0.241,3.82-0.741,5.767c-0.979,3.82-2.732,7.465-4.643,10.896c-1.498,2.693-6.107,6.495-3.199,9.278
			c1.711,1.642,7.638,4.172,9.121,13.524c1.73,10.91-0.75,19.121-4.758,25.392c-2.829,4.006-6.709,6.947-10.466,9.79l-3.163,2.437
			c-5.642,4.584-15.492,3.701-20.74,1.262c-5.252-2.443-22.438-11.85-32.487-22.263l-2.443-2.352
			c-2.139-2.06-4.031-4.406-6.132-6.51c-2.118-2.118-4.322-4.156-6.687-5.995c-4.491-3.491-9.67-6.293-15.397-6.93
			c-1.3-0.145-2.615-0.178-3.921-0.104c-0.693,0.04-1.389,0.117-2.078,0.212c-0.679,0.097-1.487,0.068-2.119,0.341
			c-0.764,0.332-0.261,0.67,0.327,0.747c0.58,0.079,0.865,0.245,1.309,0.646c1.111,1.006,2.512,1.662,3.756,2.487
			c1.424,0.948,2.778,1.997,4.082,3.102c2.65,2.257,5.084,4.757,7.455,7.3c0.262,0.278,0.518,0.558,0.779,0.838
			c3.682,4.335,8.337,9,14.203,14.229c1.546,1.244,22.303,17.574,27.317,20.746l7.26,4.668c0.068,0.037,3.438,1.965,3.438,1.965
			c3.038,1.789,6.179,3.641,9.72,4.449c-0.021-0.006,2.395,0.648,2.395,0.648c2.934,0.816,5.975,1.663,9.325,1.689
			c6.181,0.726,12.804-1.604,18.558-6.563c9.207-5.947,16.038-13.902,18.748-21.845c2.141-4.254,2.996-8.982,2.996-13.634
			c0-5.772-1.307-11.419-3.076-15.862c-1.195-3.657-3.799-6.655-6.317-9.556c-1.384-1.59-2.853-3.234-2.823-5.515
			c0.031-2.446,0.881-4.977,2.394-6.897c0.006-0.01,0.331-0.448,0.331-0.448c0.465-0.636,0.99-1.357,1.555-1.515l0.337-0.095
			c0,0,0.187-0.321,0.195-0.338l0.274-0.202c0.253-0.162,0.793-0.538,0.9-1.185c0.104,0.002,0.225,0.006,0.225,0.006l0.354-0.273
			l0.051-0.047c0.384-0.341,0.507-0.67,0.507-0.947c0-0.156-0.04-0.297-0.091-0.415c0,0-0.092-0.207-0.162-0.366
			c0.205-0.355,0.374-0.734,0.428-1.186c0,0,0.127-1.003,0.146-1.155c0.14-0.232,0.292-0.463,0.409-0.705
			c-1.331,0.632-0.784-0.989-0.459-1.692c0.261-0.561,0.573-1.119,1.035-1.54c0.427-0.395,1.13-0.419,1.433-0.92
			c0.085-0.143,0.101-0.279,0.114-0.412c0.051,0,0.154,0,0.159,0c0.124,0,0.088-1.004,0.065-1.102
			c-0.075-0.402-0.303-0.607-0.216-1.068c0.157-0.814,0.917-1.511,1.146-2.343c-0.22,0.097-0.481,0.554-0.735,0.244
			c-0.134-0.167,0.127-0.752,0.174-0.921c-0.565,0.662-0.386-0.312-0.278-0.587c0.218-0.558,0.465-1.152,0.879-1.596
			c-0.02-0.425-0.029-0.854-0.044-1.279c0.041-0.125,0.08-0.259,0.08-0.415c0-0.154-0.033-0.323-0.111-0.503l-0.088-0.19
			l-0.242-0.188c-0.09-0.072-0.227-0.172-0.398-0.255c-0.072-0.538-0.139-1.035-0.179-1.325c0.341-0.525,0.526-1.074,0.526-1.624
			c0-0.811-0.268-1.605-0.486-2.271c-0.177-0.589-0.353-1.185-0.533-1.766c-0.436,0.249-0.707,0.919-0.934-0.047
			c-0.289-1.214,0.354-2.924-1.156-3.608c-0.168-1.134-0.869-2.207-1.686-2.946c-0.228-1.266-1.021-2.111-1.756-2.844
			c-0.646-0.644-1.203-1.199-1.328-1.973l-0.09-0.549l-0.537-0.144c-0.721-0.193-1.119-0.717-1.62-1.378
			c-0.413-0.548-0.883-1.168-1.597-1.639c0,0-0.189-0.122-0.19-0.122c-0.277-0.541-0.665-0.819-1.151-0.852
			c-3.771-3.818-9.483-6.151-13.696-7.856l-0.059-0.025l-0.067-0.015C209.415,46.134,198.137,46.334,187.468,49.024"/>
		<path fill="#00873D" d="M245.599,85.948l0.003,0.015l-0.08,0.158C245.573,86.064,245.561,86.005,245.599,85.948"/>
		<path fill="#00873D" d="M60.815,119.202c-1.635,0.135-3.038,0.956-4.392,1.751c-1.552,0.908-3.019,1.768-4.628,1.42l-0.311-0.067
			l-0.266,0.191c-0.443,0.314-1.021,0.415-1.631,0.522c-0.601,0.107-1.266,0.272-1.892,0.62c-0.856-0.222-1.628-0.075-2.308,0.111
			l-1.144,0.238c0,0-2.205,0.356-2.208,0.356c-1.95,0.312-3.898,0.694-5.804,1.264c-1.613,0.479-3.525,0.755-5.026,1.548
			c-0.186,1.26,2.207,0.567,2.837,0.577c1.576,0.022,3.036,0.685,4.661,0.609c1.698-0.077,3.382-0.358,5.074-0.517
			c1.857-0.173,3.61-0.334,5.259-0.107l0.113,0.015l0.115-0.021c2.747-0.509,5.294-0.317,7.992-0.113
			c2.333,0.174,4.747,0.352,7.324,0.048c4.446,0.542,8.406-0.912,12.234-2.327c1.279-0.471,2.558-0.945,3.858-1.343
			c0.47-0.146,1.025-0.155,1.425-0.498c0.156-0.131,0.219-0.29,0.403-0.39c0.146-0.079,0.335-0.062,0.486-0.133
			c0.175-0.084,0.475-0.458,0.621-0.603c0.255-0.253,0.357-0.493,0.272-0.872c-0.087-0.387-0.322-0.673-0.662-0.792
			c-1.639-0.581-3.502-0.588-5.204-0.872c-1.869-0.31-3.749-0.623-5.645-0.619c-1.772,0.006-3.045,0.563-4.764,0.693
			C65.345,120.062,63.095,118.964,60.815,119.202"/>
		<path fill="#00873D" d="M202.707,106.354l-1.747,0.086l-0.058-0.002l-8.414,0.252c-4.02,0.148-7.823,0.285-11.776,0.267
			c-3.646-1.134-7.744-0.604-11.713-0.077c-1.263,0.166-2.522,0.334-3.792,0.45c-0.638,0.057-1.276,0.101-1.915,0.122
			c-0.52,0.017-0.969,0.217-1.475,0.283c-0.307,0.041-0.553-0.186-0.852-0.195c-0.267-0.008-0.605,0.168-0.872,0.228
			c-0.678,0.146-1.365,0.244-2.048,0.34c-1.755,0.247-3.566,0.519-5.153,1.564c-1.185,0.248-2.323,0.63-3.418,1.007
			c-1.723,0.592-3.347,1.15-5.141,1.188l-0.068,0.003l-0.071,0.015c-0.742,0.188-1.165,0.807-1.795,1.217
			c-0.561,0.364-1.904,0.467-1.942,0.845c-0.035,0.377,1.847,0.522,2.526,0.792c1.052,0.42,2.092,0.89,3.21,0.966l0.156,0.01
			l0.146-0.066c1.665-0.745,2.926-0.208,4.391,0.417c0.912,0.387,1.84,0.745,2.81,0.833c0.461,0.041,1.106,0.122,1.534-0.123
			c0.438-0.25,0.585-0.516,1.146-0.327c2.503,0.833,5.472,0.412,8.039,0.291c3.053-0.142,6.1-0.436,9.139-0.786
			c2.546-0.293,5.087-0.629,7.624-0.971l0.146-0.018l0.129-0.085c0.586-0.383,1.308-0.536,2.074-0.697
			c0.891-0.188,2.01-0.328,2.646-1.239c0.12-0.176-0.004-0.319,0.253-0.467c0.365-0.216,0.772-0.021,1.141,0.008
			c0.462,0.034,0.946-0.077,1.411-0.088c0.915-0.024,1.827,0.055,2.739,0.146l0.059,0.005l0.063-0.009
			c0.979-0.1,1.787-0.621,2.5-1.085c0.693-0.446,1.294-0.825,1.99-0.858c1.719,0.644,3.391,0.333,5.02,0.013
			c1.105-0.217,2.199-0.177,3.301-0.317c0.554-0.073,1.545-0.361,2.051-0.776c0.303-0.252,0.328-0.566,0.744-0.748
			c0.771-0.338,1.854,0.565,2.417-0.639c0.54-1.154-1.487-1.148-2.113-1.344C206.07,106.271,204.436,106.17,202.707,106.354"/>
		<path fill="#00873D" d="M134.977,156.949c-0.89-0.802-4.052-2.995-5.032-3.712c-2.743-2.002-4.044-3.2-6.06-5.344
			c-1.2-1.278-2.105-2.213-3.124-3.641c-0.459-0.645-1.046-1.364-1.287-2.104c-0.105-0.323-0.051-0.461-0.281-0.771
			c-0.14-0.192-0.345-0.316-0.452-0.539c-0.125-0.257,0.068-0.438-0.082-0.752c-0.152-0.317-0.57-0.421-0.755-0.726
			c-0.096-0.152-0.128-0.404-0.181-0.578c-0.139-0.435-0.273-0.869-0.413-1.305c-0.522-1.438-0.697-2.396-0.754-4.281
			c-0.011-0.363,0.356-3.119,1.129-2.489c0.161,0.13,0.142,0.633,0.223,0.824c0.295,0.673,1.111,1.311,1.59,1.865
			c1.133,1.309,2.414,2.032,3.874,2.915c-0.059-0.036-0.117-0.07-0.174-0.104c1.217,0.7,2.367,1.787,3.498,2.624
			c1.446,1.058,2.445,1.924,3.486,3.28c1.254,1.631,3.295,2.005,4.825,3.298c1.572,1.33,3.113,2.702,4.713,4
			c9.053,7.356,20.046,18.884,25.886,27.845c5.071,7.781,8.066,15.664,9.808,22.861c2.305,9.517,1.953,18.311-1.025,26.057
			c-4.198,15.252-17.684,27.357-31.351,28.121l-0.056,0.006l-0.055-0.006c-7.52-0.566-14.729-1.461-20.341-6.068l-0.125-0.1
			l-0.081-0.141c-0.757-1.518-2.244-2.887-3.481-4.01c-1.155-1.043-3.074-2.357-4.665-2.461c-1.03-0.066-2.109,0.125-3.055,0.541
			c-1.072,0.473-1.013,0.727-1.362,1.762c-0.195,0.578-0.5,0.74-1.074,0.965c-0.508,0.197-1.053,0.213-1.564,0.361
			c-0.832,0.244-1.566,0.822-2.29,1.275c-0.924,0.576-1.804,1.229-2.729,1.805c-1.784,1.111-3.641,2.121-5.587,2.922
			c-3.843,1.578-7.997,2.213-12.105,1.451c-0.087-0.012-0.174-0.029-0.259-0.047c-5.619-0.682-9.601-2.088-12.865-4.533
			c-5.457-3.537-10.115-10.297-12.776-18.533l-0.057-0.182l0.021-0.188c0.008-0.07,0.015-0.145,0.016-0.213
			c0.005-0.527-0.211-1.002-0.458-1.537c0,0-0.385-0.934-0.401-0.992c-0.672-2.645-0.98-5.521-0.945-8.453
			c0.069-5.695,1.43-11.605,3.932-16.456l1.881-3.752c1.17-2.376,2.379-4.831,3.721-7.083c3.423-5.778,7.046-11.293,10.287-17.143
			l1.174-2.117l0.043-0.055c0.535-0.678,0.94-1.438,1.372-2.238c0.286-0.536,0.576-1.07,0.901-1.586
			c0.286-0.449,0.685-0.656,0.969-1.025c0.171-0.221,0.125-0.395,0.236-0.592c0.104-0.186,0.262-0.326,0.362-0.498
			c0.159-0.266,0.122-0.441,0.24-0.708c0.208-0.478,0.447-0.786,0.607-1.271c0.278-0.838,0.716-1.534,1.339-2.154
			c0.514-0.512,0.632-0.884,0.923-1.521c0.74-1.615,2.159-3.057,3.194-4.499c2.118-2.954,4.308-5.862,6.612-8.675
			c1.263-1.924,2.715-3.704,4.252-5.589c0.94-1.167,1.833-2.598,2.899-3.646c-0.05,0.048-0.103,0.1-0.154,0.152
			c1.27-1.302,2.396-2.394,3.208-4.046c0.346-0.701,1.015-1.578,1.138-2.352c0.033-0.218-0.123-0.731,0.009-0.909
			c0.627-0.857,1.748,1.882,1.833,2.26c0.448,1.96,0.527,2.994,0.376,4.617c-0.024,0.487-0.047,0.97-0.072,1.456
			c-0.009,0.193,0.025,0.461-0.031,0.646c-0.111,0.363-0.514,0.582-0.586,0.95c-0.068,0.364,0.178,0.5,0.12,0.796
			c-0.049,0.259-0.229,0.442-0.321,0.679c-0.151,0.382-0.06,0.509-0.082,0.871c-0.047,0.826-0.46,1.727-0.759,2.515
			c-0.664,1.746-1.345,2.955-2.237,4.593c-1.5,2.754-2.52,4.339-4.808,7.142c-5.399,6.615-10.333,12.994-15.128,20.059
			c-4.972,7.322-9.374,15.033-13.221,23.002c-3.389,6.458-2.02,15.48,0.992,20.684c4.455,7.469,9.236,11.762,14.173,12.748
			l1.748,0.273c5.117,0.824,9.656,0.922,13.89-2.387l0.114-0.09l0.137-0.045c1.376-0.465,2.67-1.104,4.043-1.781
			c2.152-1.064,4.48-2.186,6.745-2.932c2.523-0.832,2.244-0.215,4.188,1.363c2.692,2.193,7.379,2.313,10.624,3.441
			c5.327,1.854,10.361,3.607,15.94,1.74c9.7-2.695,15.296-13.969,17.145-22.801c0.406-1.816,0.611-3.771,0.615-5.889
			c0.006-2.969-0.391-6.254-1.18-9.89c-3.336-10.729-6.969-19.3-13.857-26.319l-0.04-0.04l-0.034-0.052
			c-2.352-3.197-5.137-5.688-8.085-8.322C137.79,159.137,135.324,157.261,134.977,156.949"/>
		<path fill="#00873D" d="M111.501,156.667c-0.244,1.658-0.144,3.339-1.355,4.861c0,0.002-0.122,0.15-0.122,0.15l-0.215,1.762
			c-0.628,5.154-1.282,10.49-1.223,15.711c-0.001,0.229,0.002,0.459,0.007,0.686c0.078,2.881,0.718,5.574,1.338,8.186
			c0.393,1.652,0.801,3.357,1.052,5.076l0.019,0.133l0.079,0.117c0.913,1.4,1.191,3.158,1.24,4.965
			c0.021,0.765-0.039,1.526-0.032,2.287c0.005,0.582-0.229,1.273-0.106,1.834c0.093,0.412,0.474,0.768,0.645,1.165
			c0.353,0.821-0.127,1.646-0.092,2.474c0.019,0.449,0.42,0.622,0.513,0.941c0.1,0.338-0.2,0.785-0.26,1.129
			c-0.088,0.493-0.082,1.006-0.068,1.504c0.045,1.678,0.775,3.227,1.788,4.705c0.513,0.749,1.157,1.465,1.616,2.232
			c0.468,0.774,0.251,1.656,0.669,2.43c0.442,0.813,0.684-0.412,0.75-0.691c0.198-0.857-0.052-1.625-0.11-2.477
			c-0.076-1.1,0.352-2.184,0.321-3.301c-0.02-0.766-0.109-1.524-0.197-2.269c-0.085-0.74-0.173-1.495-0.195-2.251
			c-0.01-0.33-0.001-0.658,0.022-0.992c0.353-0.957,0.692-2.02,0.664-3.115c-0.01-0.346-0.088-0.695-0.183-1.049
			c0.374-0.729,0.488-1.453,0.469-2.16c-0.007-0.287-0.029-0.572-0.052-0.854c-0.021-0.264-0.042-0.525-0.049-0.783
			c-0.014-0.555,0.033-1.088,0.272-1.588l0.056-0.115l0.265-6.771c0.172-3.566,0.351-7.258,0.25-10.954
			c0-0.032-0.003-0.136-0.003-0.136c-0.329-2.284-0.552-4.562-0.817-6.832c-0.203-1.781-1.535-3.318-1.882-5.051
			c-0.092-0.459-0.583-0.682-0.742-1.1c-0.18-0.479,0.273-0.866,0.344-1.318c0.08-0.512-0.125-1.119-0.225-1.625
			c-0.195-0.978-0.482-1.939-0.771-2.9c-0.283-0.941-0.352-1.973-0.762-2.881c-0.425-0.936-1.001-3.24-2.268-3.77
			c-0.449,0.508-0.352,1.232-0.492,1.813C111.591,156.118,111.542,156.393,111.501,156.667"/>
	</g>
	<line fill="#00873D" stroke="#00873D" stroke-width="3" stroke-miterlimit="10" x1="0" y1="269.571" x2="248.031" y2="269.571"/>
	<path fill="#00873D" d="M27.106,301.399c-5,0-8.12-2.758-8.12-8.598c0-5.281,3.56-8.24,8.839-8.24c1.881,0,4.121,0.559,5.081,1.08
		l-0.921,2.279c-1.08-0.439-2.64-0.881-4.2-0.881c-3.12,0-5.68,1.721-5.68,5.643c0,3.879,1.6,6.078,5,6.078
		c2.12,0,4.08-0.439,5.76-1.16l0.76,2.4C32.586,300.56,29.586,301.399,27.106,301.399z"/>
	<path fill="#00873D" d="M38.625,300.841v-15.799h10.72v2.359h-7.76v4.08h6.68v2.279h-6.68v4.762h8.76v2.318H38.625z"/>
	<path fill="#00873D" d="M66.3,300.841l-8.6-12.199v12.199h-2.68v-15.799h3.52l7.92,11.199v-11.199h2.68v15.799H66.3z"/>
	<path fill="#00873D" d="M82.082,287.562v13.279h-2.959v-13.279h-5.96v-2.48h15v2.48H82.082z"/>
	<path fill="#00873D" d="M91.962,300.841v-15.799h10.72v2.359h-7.76v4.08h6.68v2.279h-6.68v4.762h8.76v2.318H91.962z"/>
	<path fill="#00873D" d="M118.071,301.481l-4.761-6.521c-0.28,0.041-0.28,0.041-0.559,0.041h-1.96v5.84h-2.96v-15.799h5.561
		c3.8,0,5.759,1.998,5.759,4.879c0,2.762-1.599,3.92-3.04,4.48l4.521,5.879L118.071,301.481z M113.391,287.282h-2.6v5.439h2.6
		c2.359,0,2.72-1.08,2.72-2.641C116.11,288.522,115.551,287.282,113.391,287.282z"/>
	<path fill="#00873D" d="M130.651,295.44l-2.4-0.039v5.439h-2.96v-15.76h5.64c3.881,0,6.281,1.801,6.281,4.801
		C137.212,293.401,134.812,295.521,130.651,295.44z M130.931,287.362h-2.68v5.76h2.2c2.76,0,3.679-1.002,3.679-2.961
		C134.13,288.44,133.29,287.362,130.931,287.362z"/>
	<path fill="#00873D" d="M151.422,301.2l-1.601-4.16h-7.08l-1.759,4.16l-2.722-0.52l6.961-15.639h2.801l6.319,15.561L151.422,301.2z
		 M146.382,288.122l-2.68,6.598h5.24L146.382,288.122z"/>
	<path fill="#00873D" d="M168.098,301.481l-4.76-6.521c-0.28,0.041-0.28,0.041-0.56,0.041h-1.961v5.84h-2.959v-15.799h5.559
		c3.801,0,5.761,1.998,5.761,4.879c0,2.762-1.601,3.92-3.04,4.48l4.52,5.879L168.098,301.481z M163.417,287.282h-2.6v5.439h2.6
		c2.361,0,2.721-1.08,2.721-2.641C166.138,288.522,165.578,287.282,163.417,287.282z"/>
	<path fill="#00873D" d="M181.297,287.562v13.279h-2.96v-13.279h-5.959v-2.48h14.999v2.48H181.297z"/>
	<path fill="#00873D" d="M191.735,300.841v-15.799h2.959v15.799H191.735z"/>
	<path fill="#00873D" d="M200.055,300.841v-15.799h10.72v2.359h-7.76v4.08h6.68v2.279h-6.68v4.762h8.76v2.318H200.055z"/>
	<path fill="#00873D" d="M223.291,287.562v13.279h-2.959v-13.279h-5.961v-2.48h15v2.48H223.291z"/>
</g>
</svg>
