<?xml version="1.0" encoding="UTF-8" standalone="no"?>
<svg
   xmlns:dc="http://purl.org/dc/elements/1.1/"
   xmlns:cc="http://creativecommons.org/ns#"
   xmlns:rdf="http://www.w3.org/1999/02/22-rdf-syntax-ns#"
   xmlns:svg="http://www.w3.org/2000/svg"
   xmlns="http://www.w3.org/2000/svg"
   xmlns:sodipodi="http://sodipodi.sourceforge.net/DTD/sodipodi-0.dtd"
   xmlns:inkscape="http://www.inkscape.org/namespaces/inkscape"
   id="icon-logo"
   viewBox="0 0 161 194"
   width="100%"
   height="100%"
   version="1.1"
   sodipodi:docname="Liberals (Sweden).svg"
   inkscape:version="0.92.1 r15371">
  <metadata
     id="metadata4670">
    <rdf:RDF>
      <cc:Work
         rdf:about="">
        <dc:format>image/svg+xml</dc:format>
        <dc:type
           rdf:resource="http://purl.org/dc/dcmitype/StillImage" />
        <dc:title>logo</dc:title>
      </cc:Work>
    </rdf:RDF>
  </metadata>
  <defs
     id="defs4668" />
  <sodipodi:namedview
     pagecolor="#ffffff"
     bordercolor="#666666"
     borderopacity="1"
     objecttolerance="10"
     gridtolerance="10"
     guidetolerance="10"
     inkscape:pageopacity="0"
     inkscape:pageshadow="2"
     inkscape:window-width="1920"
     inkscape:window-height="1017"
     id="namedview4666"
     showgrid="false"
     inkscape:showpageshadow="false"
     borderlayer="true"
     inkscape:zoom="4.371134"
     inkscape:cx="80.5"
     inkscape:cy="97"
     inkscape:window-x="-8"
     inkscape:window-y="-8"
     inkscape:window-maximized="1"
     inkscape:current-layer="icon-logo" />
  <title
     id="title4659">logo</title>
  <path
     d="M29.5,0h0A29.5,29.5,0,0,1,59,29.5V194a0,0,0,0,1,0,0H29.5A29.5,29.5,0,0,1,0,164.5V29.5A29.5,29.5,0,0,1,29.5,0Z"
     id="path4661"
     style="fill:#006ab3;fill-opacity:1" />
  <path
     d="M94.5,135h37A29.5,29.5,0,0,1,161,164.5v0A29.5,29.5,0,0,1,131.5,194H65a0,0,0,0,1,0,0V164.5A29.5,29.5,0,0,1,94.5,135Z"
     id="path4663"
     style="fill:#006ab3;fill-opacity:1" />
</svg>
