
<svg width="53px" height="46px" viewBox="0 0 53 46" version="1.1" xmlns="http://www.w3.org/2000/svg" xmlns:xlink="http://www.w3.org/1999/xlink">
    <defs></defs>
    <g id="Page-1" stroke="none" stroke-width="1" fill="none" fill-rule="evenodd">
        <g id="MP" transform="translate(0.000000, -1.000000)" fill-rule="nonzero">
            <path d="M52.195,15.203 C55.745,27.597 47.215,41.753 33.144,45.784 C19.079,49.813 4.801,43.544 1.248,31.156 C-2.302,18.767 6.23,6.48 20.297,2.451 C34.369,-1.581 48.65,2.823 52.195,15.203 Z" id="Shape" fill="#2B912C"></path>
            <path d="M51.249,15.541 C47.834,3.622 34.088,-0.613 20.553,3.264 C7.013,7.141 -1.196,18.972 2.22,30.888 C5.629,42.815 19.376,48.844 32.915,44.964 C46.455,41.085 54.662,27.46 51.249,15.541 Z M30.725,40.457 C27.199,41.149 23.734,41.138 20.534,40.545 C19.504,37.514 18.431,30.689 25.657,23.419 L22.653,23.552 C17.531,28.591 16.801,35.542 17.843,39.907 C11.346,37.908 6.384,33.247 5.104,26.745 C3.054,16.344 10.392,6.635 22.494,4.25 C34.598,1.874 46.558,5.598 48.606,16.003 C50.653,26.397 42.827,38.071 30.725,40.457 Z" id="Shape" fill="#FFFFFF"></path>
            <g id="Group" transform="translate(18.000000, 21.000000)">
                <g transform="translate(4.000000, 0.000000)" id="Shape">
                    <path d="M4.817,1.553 C2.275,4.51 0.255,8.303 0.255,8.303 C0.255,8.303 -0.452,4.703 2.815,0.43" fill="#AAD3AB"></path>
                    <path d="M3.439,3.524 C3.076,4.15 0.623,7.5 0.623,7.5 C0.623,7.5 0.909,5.406 2.31,3.348" fill="#55A756"></path>
                </g>
                <g transform="translate(2.000000, 1.000000)" id="Shape">
                    <path d="M4.604,0.501 C1.458,3.577 0.585,7.35 0.585,7.35 C0.585,7.35 2.139,5.045 7.289,2.026" fill="#80BD80"></path>
                    <path d="M3.292,2.296 C2.541,3.223 1.323,5.985 1.323,5.985 C1.323,5.985 3.117,3.913 4.321,2.799" fill="#AAD3AB"></path>
                </g>
                <g id="Shape">
                    <path d="M6.841,0.963 C3.691,4.039 0.358,4.774 0.358,4.774 C0.358,4.774 4.376,5.504 9.524,2.488" fill="#55A756"></path>
                    <path d="M5.873,2.964 C2.753,4.546 1.414,4.54 1.414,4.54 C1.414,4.54 3.474,3.451 5.034,2.191" fill="#80BD80"></path>
                </g>
                <path d="M5.817,2.668 C3.619,5.19 1.333,6.035 1.333,6.035 C1.333,6.035 3.364,6.428 5.409,4.099" id="Shape" fill="#55A756"></path>
            </g>
            <path d="M40.084,28.914 C39.99,28.081 38.771,27.998 38.313,27.348 C37.856,26.698 40.885,27.887 40.806,27.102 C40.725,26.316 39.109,26.097 38.352,25.587 C37.598,25.071 39.465,25.693 39.712,24.874 C39.959,24.055 38.609,24.208 38.106,23.792 C37.599,23.374 39.09,23.737 39.983,23.24 C40.878,22.743 37.047,22.582 36.39,22.431 C35.736,22.279 36.922,22.031 37.889,21.315 C38.859,20.6 38.011,20.644 37.15,20.857 C36.29,21.065 36.4,20.562 35.956,19.658 C35.507,18.751 35.188,18.705 34.49,18.393 C33.799,18.083 33.813,18.051 33.53,17.549 C33.253,17.042 32.714,16.299 32.268,16.092 C31.821,15.879 31.439,15.316 31.195,14.83 C30.945,14.343 30.714,14.212 29.829,13.625 C29.829,13.625 29.302,13.627 29.188,13.215 C29.07,12.803 28.553,13.031 28.442,13.231 C28.327,13.428 27.299,13.019 27.133,12.229 C26.972,11.442 26.34,11.476 25.912,11.538 C25.724,11.566 25.491,11.89 25.25,12.269 C24.938,11.688 24.62,11.132 24.609,11.776 C24.599,12.238 24.779,12.569 24.919,12.806 C24.734,13.11 24.56,13.381 24.415,13.517 C24.3,13.337 24.171,13.136 24.052,12.965 C23.766,12.565 24.337,11.668 23.99,11.317 C23.64,10.961 22.096,10.747 22.681,11.088 C22.994,11.267 23.093,12.098 23.135,12.969 C22.875,12.658 22.554,12.261 22.116,11.704 C20.093,9.122 17.336,10.919 18.406,10.565 C19.476,10.214 21.926,12.511 22.277,13.583 C22.631,14.65 21.644,13.311 20.501,12.398 C19.595,11.684 17.626,11.403 17.437,11.627 L17.384,11.569 C16.55,11.202 15.511,9.94 14.8,10.285 C14.091,10.631 16.699,12.579 15.907,12.532 C15.109,12.486 14.403,11.492 13.641,11.854 C12.876,12.214 11.704,11.832 11.65,12.014 C11.592,12.202 12.097,12.397 12.645,12.658 C13.202,12.913 13.839,13.219 12.916,13.016 C11.991,12.811 11.281,13.239 11.232,13.565 C11.187,13.885 13.502,12.887 15.331,14.359 C17.16,15.84 12.713,13.382 11.328,14.174 C9.942,14.974 12.011,14.299 13.988,15.423 C15.963,16.55 10.65,15.1 10.223,16.507 C9.796,17.921 9.782,16.719 10.745,17.162 C11.718,17.608 9.706,17.61 10.439,17.924 C11.173,18.243 15.03,17.017 16.985,17.787 C18.939,18.558 13.952,17.975 13.662,18.503 C13.371,19.037 12.498,19.681 13.702,19.779 C14.897,19.873 14.842,19.602 16.751,19.739 C18.664,19.881 16.62,20.158 16.645,20.517 C16.665,20.874 17.425,20.627 18.808,20.309 C19.013,20.262 19.157,20.247 19.275,20.244 C18.421,20.908 17.077,21.514 16.748,21.934 C16.517,22.222 18.895,22.26 18.897,21.676 C18.897,21.408 19.16,21.374 19.477,21.435 C19.458,21.542 19.465,21.647 19.516,21.746 C19.894,22.473 18.228,22.97 18.216,23.613 C18.212,24.257 20.917,22.712 21.806,22.59 C22.694,22.473 18.273,24.492 19.746,24.563 C20.725,24.61 22.199,23.939 23.295,23.555 C23.524,23.961 23.619,24.472 22.963,24.858 C21.987,25.434 22.756,25.118 22.92,26.276 C23.171,28.036 23.939,25.334 24.538,25.666 C24.222,26.624 23.64,28.173 23.953,28.228 C24.2,28.275 24.56,27.23 24.819,26.143 C25.007,26.893 24.805,28.228 25.469,29.191 C26.306,30.401 26.283,26.824 26.652,27.636 C27.017,28.457 27.13,31.567 27.673,31.219 C27.962,31.035 27.893,29.24 27.885,27.592 C28.37,28.971 28.875,30.439 29.279,30.821 C30.177,31.675 28.792,28.081 29.2,26.34 C29.206,26.32 29.21,26.297 29.216,26.276 C29.329,26.856 29.38,27.473 29.389,27.88 C29.405,28.846 30.009,27.707 30.463,29.053 C30.925,30.401 31.62,34.105 31.933,33.932 C32.244,33.765 30.612,28.873 31.739,30.425 C32.861,31.978 32.763,33.619 33.478,34.589 C34.191,35.56 34.281,34.474 34.58,33.95 C34.833,33.508 31.653,27.415 31.631,26.223 C32.578,27.474 33.082,29.378 33.798,30.224 C34.297,30.816 33.805,29.589 33.355,27.998 C34.726,30.518 36.116,34.489 36.606,34.831 C37.261,35.292 36.131,32.519 37.017,33.108 C37.905,33.691 36.95,35.372 37.925,34.269 C38.897,33.17 35.24,29.009 37.239,30.094 C39.236,31.183 39.383,33.699 39.329,32.101 C39.269,30.504 35.277,28.635 37.494,29.411 C39.714,30.184 39.648,32.066 39.896,31.858 C40.146,31.65 40.139,30.82 39.478,30.142 C38.818,29.463 39.329,29.708 39.839,30.039 C40.347,30.369 40.866,30.837 40.993,30.694 C41.121,30.546 40.179,29.752 40.084,28.914 Z" id="Shape" fill="#FFE900"></path>
        </g>
    </g>
</svg>
